0
SECTION
2
HEADER
9
$ACADVER
1
AC1009
9
$INSUNITS
70
4
0
ENDSEC
0
SECTION
2
TABLES
0
TABLE
2
LAYER
70
6
0
LAYER
2
0
70
0
62
7
6
CONTINUOUS
0
LAYER
2
DUVAR
70
0
62
7
6
CONTINUOUS
0
LAYER
2
KAPI
70
0
62
3
6
CONTINUOUS
0
LAYER
2
PENCERE
70
0
62
5
6
CONTINUOUS
0
LAYER
2
MOBILYA
70
0
62
8
6
CONTINUOUS
0
LAYER
2
METIN
70
0
62
2
6
CONTINUOUS
0
ENDTAB
0
ENDSEC
0
SECTION
2
BLOCKS
0
BLOCK
2
KAPI-90
10
0.0
20
0.0
30
0.0
0
LINE
8
0
10
0.0
20
0.0
30
0.0
11
900.0
21
0.0
31
0.0
0
ARC
8
0
10
0.0
20
0.0
30
0.0
40
900.0
50
0.0
51
90.0
0
ENDBLK
0
ENDSEC
0
SECTION
2
ENTITIES
0
LWPOLYLINE
8
DUVAR
90
4
70
1
10
0.0
20
0.0
10
12000.0
20
0.0
10
12000.0
20
9000.0
10
0.0
20
9000.0
0
LWPOLYLINE
8
DUVAR
90
4
70
1
10
200.0
20
200.0
10
11800.0
20
200.0
10
11800.0
20
8800.0
10
200.0
20
8800.0
0
LINE
8
DUVAR
10
5000.0
20
200.0
30
0.0
11
5000.0
21
5200.0
31
0.0
0
LINE
8
DUVAR
10
5200.0
20
200.0
30
0.0
11
5200.0
21
5200.0
31
0.0
0
LINE
8
DUVAR
10
200.0
20
5200.0
30
0.0
11
5200.0
21
5200.0
31
0.0
0
LINE
8
DUVAR
10
200.0
20
5400.0
30
0.0
11
5200.0
21
5400.0
31
0.0
0
LINE
8
DUVAR
10
8000.0
20
5400.0
30
0.0
11
8000.0
21
8800.0
31
0.0
0
LINE
8
DUVAR
10
8200.0
20
5400.0
30
0.0
11
8200.0
21
8800.0
31
0.0
0
LINE
8
DUVAR
10
5200.0
20
5400.0
30
0.0
11
8000.0
21
5400.0
31
0.0
0
LINE
8
DUVAR
10
5200.0
20
5600.0
30
0.0
11
8000.0
21
5600.0
31
0.0
0
INSERT
8
KAPI
2
KAPI-90
10
5200.0
20
1200.0
30
0.0
41
1.000
42
1.000
43
1.000
50
90.0
0
INSERT
8
KAPI
2
KAPI-90
10
2400.0
20
5200.0
30
0.0
41
1.000
42
1.000
43
1.000
50
0.0
0
INSERT
8
KAPI
2
KAPI-90
10
7800.0
20
6200.0
30
0.0
41
1.000
42
-1.000
43
1.000
50
180.0
0
INSERT
8
KAPI
2
KAPI-90
10
6200.0
20
5600.0
30
0.0
41
-1.000
42
1.000
43
1.000
50
90.0
0
LINE
8
PENCERE
10
1200.0
20
0.0
30
0.0
11
3600.0
21
0.0
31
0.0
0
LINE
8
PENCERE
10
1200.0
20
100.0
30
0.0
11
3600.0
21
100.0
31
0.0
0
LINE
8
PENCERE
10
1200.0
20
200.0
30
0.0
11
3600.0
21
200.0
31
0.0
0
LINE
8
PENCERE
10
8400.0
20
0.0
30
0.0
11
10800.0
21
0.0
31
0.0
0
LINE
8
PENCERE
10
8400.0
20
100.0
30
0.0
11
10800.0
21
100.0
31
0.0
0
LINE
8
PENCERE
10
8400.0
20
200.0
30
0.0
11
10800.0
21
200.0
31
0.0
0
LINE
8
PENCERE
10
0.0
20
6200.0
30
0.0
11
0.0
21
8000.0
31
0.0
0
LINE
8
PENCERE
10
100.0
20
6200.0
30
0.0
11
100.0
21
8000.0
31
0.0
0
LINE
8
PENCERE
10
200.0
20
6200.0
30
0.0
11
200.0
21
8000.0
31
0.0
0
LINE
8
PENCERE
10
3000.0
20
8800.0
30
0.0
11
5000.0
21
8800.0
31
0.0
0
LINE
8
PENCERE
10
3000.0
20
8900.0
30
0.0
11
5000.0
21
8900.0
31
0.0
0
LINE
8
PENCERE
10
3000.0
20
9000.0
30
0.0
11
5000.0
21
9000.0
31
0.0
0
LWPOLYLINE
8
MOBILYA
90
4
70
1
10
8600.0
20
6400.0
10
10600.0
20
6400.0
10
10600.0
20
8000.0
10
8600.0
20
8000.0
0
CIRCLE
8
MOBILYA
10
2500.0
20
2400.0
30
0.0
40
700.0
0
LWPOLYLINE
8
MOBILYA
90
4
70
1
10
5400.0
20
600.0
10
8400.0
20
600.0
10
8400.0
20
1200.0
10
5400.0
20
1200.0
0
LWPOLYLINE
8
MOBILYA
90
4
70
1
10
5400.0
20
5600.0
10
6100.0
20
5600.0
10
6100.0
20
7000.0
10
5400.0
20
7000.0
0
TEXT
8
METIN
10
2600.0
20
2600.0
30
0.0
40
300.0
1
SALON
72
1
0
TEXT
8
METIN
10
8600.0
20
2600.0
30
0.0
40
300.0
1
MUTFAK
72
1
0
TEXT
8
METIN
10
6400.0
20
6400.0
30
0.0
40
300.0
1
BANYO
72
1
0
TEXT
8
METIN
10
9800.0
20
7200.0
30
0.0
40
300.0
1
YATAK ODASI
72
1
0
TEXT
8
METIN
10
2600.0
20
6000.0
30
0.0
40
250.0
1
ANTRE
72
1
0
TEXT
8
METIN
10
6000.0
20
250.0
30
0.0
40
200.0
1
PAFTA ORNEK KAT PLANI 1:50
72
1
0
ENDSEC
0
EOF
